<?xml version="1.0"?><svg width="640" height="480" xmlns="http://www.w3.org/2000/svg">
 <title>clear lips</title>
 <g>
  <title>Layer 1</title>
  <path fill="#9f0000" fill-rule="evenodd" stroke="#ffffff" stroke-width="0.82515669pt" id="path1070" d="m264.022522,287.290283c-22.903625,0 -40.455444,-2.379669 -66.604553,-21.431671c-26.523895,-19.325073 -39.961487,-46.784332 -66.153412,-69.987076c-7.279572,-6.448853 -32.656616,-22.536285 -43.639557,-26.466217c22.153229,-11.840668 46.11319,-29.116623 54.700043,-35.335022c23.803619,-17.238098 43.87793,-40.529518 60.825256,-40.445084c13.44104,0.06852 28.397095,18.240616 60.872223,18.240616c33.018036,0 47.431244,-18.172096 60.872284,-18.240616c16.947296,-0.084435 37.021637,23.206985 60.825226,40.445084c8.586884,6.218399 32.546814,23.494354 54.700043,35.335022c-10.982941,3.929932 -36.359955,20.017365 -43.639587,26.466217c-26.191925,23.202744 -39.629456,50.662003 -66.153381,69.987076c-26.149078,19.052002 -44.243805,21.431671 -66.604584,21.431671zm0,-78.465469c-8.31424,0 -14.68576,-0.579697 -24.178192,-5.220612c-9.628448,-4.70755 -14.506439,-6.175629 -24.014404,-11.827744c-2.642578,-1.570908 -11.854706,-5.48967 -15.841644,-6.447021c8.04184,-2.884354 16.739594,-7.092682 19.85672,-8.607483c8.640961,-4.199051 15.928162,-9.872696 22.080231,-9.852188c4.879242,0.016708 10.308472,4.443375 22.09729,4.443375c11.985901,0 17.218048,-4.426666 22.09729,-4.443375c6.152069,-0.020508 13.439301,5.653137 22.080261,9.852188c3.117126,1.514801 11.81485,5.723129 19.85672,8.607483c-3.986938,0.957352 -13.199066,4.876114 -15.841675,6.447021c-9.507935,5.652115 -14.385925,7.120193 -24.014374,11.827744c-9.492432,4.640915 -16.061005,5.220612 -24.178223,5.220612z"/>
 </g>
</svg>